PathFileType	3	(X/Y/Z)	D:\Students\303\Renee\Session 1\Renee Cal 01.trc
DataRate	CameraRate	NumFrames	NumMarkers	Units	OrigDataRate	OrigDataStartFrame	OrigNumFrames
100.0	100.0	9	27	mm	100.0	225	599	
Frame#	Time	RASIS			LASIS			RPSIS			LPSIS			RKneeLateral			RKneeMedial			LKneeLateral			LKneeMedial			RAnkleLateral			RAnkleMedial			RShank			RFibula			LAnkleLateral			LAnkleMedial			LShank			LFibula			RMT2			RHeel			RMT5			RToe			LMT2			LHeel			LMT5			LToe			Sternum			LShoulder			RShoulder			
		X1	Y1	Z1	X2	Y2	Z2	X3	Y3	Z3	X4	Y4	Z4	X5	Y5	Z5	X6	Y6	Z6	X7	Y7	Z7	X8	Y8	Z8	X9	Y9	Z9	X10	Y10	Z10	X11	Y11	Z11	X12	Y12	Z12	X13	Y13	Z13	X14	Y14	Z14	X15	Y15	Z15	X16	Y16	Z16	X17	Y17	Z17	X18	Y18	Z18	X19	Y19	Z19	X20	Y20	Z20	X21	Y21	Z21	X22	Y22	Z22	X23	Y23	Z23	X24	Y24	Z24	X25	Y25	Z25	X26	Y26	Z26	X27	Y27	Z27	
225	2.24	-147.74254	886.09979	-498.68863	-422.02603	888.04694	-496.60953	-222.04305	943.29883	-287.50531	-342.2417	946.79523	-283.6752	-115.68454	428.82657	-383.56976				-479.8757	441.46442	-369.56418										-106.36951	314.05023	-363.93381	-114.17496	389.35406	-374.392	-452.06006	56.56736	-361.03629				-475.68732	313.49533	-387.36353	-482.7446	409.41537	-361.21408	-177.50797	23.692688	-515.75366	-189.75314	21.199814	-304.35739	-136.37703	20.393852	-495.4935				-415.72885	21.326982	-523.80963	-402.89999	29.78319	-312.49805	-453.62125	19.183578	-497.35309				-294.76675	1309.8947	-476.05048	-429.61053	1358.7498	-367.68881	-134.16386	1368.2037	-401.6239
226	2.25	-147.77069	886.11804	-498.61371	-422.05429	888.06683	-496.53979	-222.08014	943.32422	-287.39111	-342.26205	946.81152	-283.58026	-115.71286	428.85004	-383.5119				-479.94727	441.48505	-369.4982										-106.40179	314.06424	-363.89664	-114.18924	389.37991	-374.33325	-452.07281	56.558968	-361.03995				-475.71603	313.49197	-387.33539	-482.76517	409.40717	-361.17697	-177.51149	23.704849	-515.74438	-189.76373	21.210918	-304.3447	-136.3868	20.393288	-495.48688				-415.73996	21.323778	-523.80682	-402.91077	29.78756	-312.50833	-453.63174	19.178894	-497.35059				-294.78577	1309.8878	-476.01837	-429.64282	1358.7277	-367.67245	-134.16988	1368.2031	-401.61819
227	2.26	-147.80156	886.13641	-498.54065	-422.09055	888.07043	-496.46133	-222.12199	943.35864	-287.29202	-342.30237	946.83936	-283.48502	-115.72917	428.8721	-383.44193				-479.96646	441.52246	-369.42712										-106.42786	314.08765	-363.84772	-114.18878	389.40726	-374.29749	-452.07593	56.546803	-361.0387				-475.73468	313.49899	-387.30914	-482.79276	409.39673	-361.12659	-177.52841	23.703751	-515.74207	-189.76627	21.208193	-304.33578	-136.3856	20.389645	-495.49338				-415.7569	21.326841	-523.81195	-402.92847	29.798786	-312.52872	-453.64163	19.183619	-497.35739				-294.78549	1309.863	-475.99408	-429.66272	1358.6979	-367.64203	-134.1646	1368.2124	-401.61798
228	2.27	-147.83701	886.15973	-498.44748	-422.13733	888.09503	-496.3902	-222.15996	943.39966	-287.18719	-342.34198	946.86926	-283.40167	-115.73106	428.90588	-383.37161				-479.95798	441.48148	-369.42633										-106.44376	314.1167	-363.80542	-114.20858	389.44913	-374.24301	-452.07965	56.545528	-361.04099				-475.7323	313.49951	-387.27274	-482.81314	409.41193	-361.08307	-177.52792	23.711445	-515.74091	-189.70197	21.382854	-304.05002	-136.38422	20.404076	-495.49045				-415.7659	21.34853	-523.79877	-402.97757	29.853212	-312.47162	-453.63489	19.193302	-497.35336				-294.78067	1309.8486	-475.96353	-429.70346	1358.6976	-367.63879	-134.16547	1368.2271	-401.60394
229	2.28	-147.86082	886.19928	-498.35876	-422.16238	888.08826	-496.3031	-222.18353	943.40594	-287.11658	-342.37143	946.87921	-283.32452	-115.73977	428.92319	-383.31821				-479.95856	441.47098	-369.39713										-106.46891	314.1427	-363.74857	-114.23831	389.46625	-374.17844	-452.09015	56.549004	-361.02234				-475.74478	313.50055	-387.25543	-482.82901	409.41672	-361.04309	-177.52385	23.719908	-515.74628	-189.76094	21.181702	-304.34317	-136.39471	20.417259	-495.48553				-415.77371	21.348804	-523.79755	-402.99268	29.866131	-312.46832	-453.64368	19.188848	-497.35339				-294.76114	1309.8319	-475.94537	-429.72031	1358.7	-367.6134	-134.16066	1368.2434	-401.59842
230	2.29	-147.87019	886.21167	-498.25223	-422.17172	888.0813	-496.19901	-222.20273	943.42206	-287.02844	-342.39554	946.88995	-283.25122	-115.74273	428.93033	-383.24503				-479.98273	441.44388	-369.37933										-106.46252	314.15231	-363.69687	-114.20702	389.49454	-374.13098	-452.09714	56.541962	-361.02359				-475.76654	313.49979	-387.21814	-482.85718	409.42667	-361.0043	-177.51437	23.725748	-515.72839	-189.76089	21.16073	-304.34702	-136.38242	20.413147	-495.48965				-415.7886	21.357086	-523.78278	-403.01193	29.869238	-312.46902	-453.63245	19.188742	-497.34634				-294.74332	1309.799	-475.92438	-429.73129	1358.6997	-367.59769	-134.15994	1368.2485	-401.58014
231	2.3	-147.85997	886.21777	-498.15607	-422.20636	888.09082	-496.11737	-222.21289	943.4093	-286.95142	-342.40994	946.88147	-283.17331	-115.7379	428.93768	-383.18396				-479.98196	441.47299	-369.2962										-106.45435	314.16028	-363.64066	-114.22433	389.48492	-374.05713	-452.10117	56.545944	-361.01993				-475.77817	313.50928	-387.19449	-482.87183	409.43066	-360.95856	-177.51183	23.722515	-515.73871	-189.76152	21.161299	-304.34589	-136.3737	20.411463	-495.47916				-415.79443	21.365206	-523.78558	-402.94403	29.814116	-312.57178	-453.63089	19.192129	-497.34433				-294.737	1309.786	-475.90826	-429.71948	1358.6947	-367.57101	-134.15207	1368.2404	-401.58237
232	2.31	-147.83423	886.21265	-498.05838	-422.18591	888.09534	-496.01462	-222.22191	943.38544	-286.86197	-342.41122	946.85718	-283.09604	-115.73679	428.92715	-383.10657				-480.03625	441.48346	-369.2756										-106.44991	314.14804	-363.58423	-114.21145	389.47552	-373.98364	-452.11624	56.566856	-361.00693				-475.78363	313.51196	-387.17587	-482.88364	409.43674	-360.92157	-177.50262	23.7223	-515.73083	-189.74939	21.156872	-304.34683	-136.36337	20.413527	-495.48453				-416.02661	21.486149	-523.7511	-402.99124	29.828279	-312.48959	-453.63486	19.199846	-497.34225				-294.71732	1309.7526	-475.89056	-429.72342	1358.6853	-367.58704	-134.14108	1368.2167	-401.56915
233	2.32	-147.81348	886.20276	-497.92676	-422.16373	888.10944	-495.91861	-222.22687	943.36005	-286.77438	-342.40363	946.82367	-283.02112	-115.7304	428.90042	-383.04388				-480.01111	441.46777	-369.24442										-106.42168	314.13696	-363.52548	-114.19248	389.46304	-373.90402	-452.12891	56.568417	-361.00452				-475.77887	313.51086	-387.14914	-482.89948	409.43442	-360.89743	-177.49419	23.721895	-515.72778	-189.75299	21.154467	-304.33823	-136.3577	20.409588	-495.47052				-415.82709	21.39892	-523.7735	-402.99405	29.804331	-312.4866	-453.633	19.21921	-497.3302				-294.70837	1309.7334	-475.88547	-429.71301	1358.6718	-367.58981	-134.14276	1368.1962	-401.5686
